<?xml version="1.0" encoding="utf-8"?>
<!-- Generator: Adobe Illustrator 28.0.0, SVG Export Plug-In . SVG Version: 6.00 Build 0)  -->
<svg version="1.1" xmlns="http://www.w3.org/2000/svg" xmlns:xlink="http://www.w3.org/1999/xlink" x="0px" y="0px"
	 viewBox="0 0 540 540" style="enable-background:new 0 0 540 540;" xml:space="preserve">
<style type="text/css">
	.st0{opacity:0.4;}
	.st1{fill:#0C2259;}
	.st2{display:none;fill:none;stroke:#000000;stroke-width:23;stroke-miterlimit:10;}
	.st3{fill:#F1DFB5;}
	.st4{fill:none;stroke:#000000;stroke-width:15.5551;stroke-miterlimit:10;}
	.st5{fill:none;stroke:#F1DFB5;stroke-width:6;stroke-linecap:round;stroke-linejoin:round;}
	.st6{fill:none;stroke:#F1DFB5;stroke-width:6;stroke-linecap:round;}
</style>
<g id="Layer_1">
</g>
<g id="Layer_2" class="st0">
</g>
<g id="Layer_3">
	<path class="st1" d="M493.9,274.8c0,111-82.1,202.7-188.9,217.8c-10.1,1.4-20.5,2.2-31,2.2c-10.5,0-20.8-0.7-31-2.2
		c-106.8-15-189-106.8-189-217.8c0-121.5,98.5-220,219.9-220S493.9,153.3,493.9,274.8z"/>
	<path d="M345,368.1c-3.7,2.4-10.3,9.8-11.8,17.9c-14.9,0-26.9,16.2-26.9,25.6c0,9.4-0.2,17.9-0.2,17.9s5.5,2.2,5.7,9.4
		c0.2,7.2-6.8,9.8-6.8,9.8v43.9c-10.1,1.4-20.5,2.2-31,2.2c-10.5,0-20.8-0.7-31-2.2v-44c0,0-7-2.4-6.8-9.6c0.2-7.2,5.7-9.6,5.7-9.6
		s-0.2-8.5-0.2-17.9c0-9.4-12-25.6-26.9-25.6c-1.5-8.1-8.1-15.5-11.8-17.9c3.1-2.6,7.7-6.4,7.7-6.4l126.5,0.2
		C337.2,361.7,341.9,365.5,345,368.1z"/>
	<path class="st2" d="M336.1,276.6c39-63.3,83.3-132.1,70.7-208c-7.2-42.5-38.8-77.1-78.9-92C275.3-43.5,209.2-33.8,169.1,7.2
		c-14.8,15.1-25,34-29.8,54.7c-16.1,76.7,30,147.5,69.6,211.7"/>
	<ellipse class="st3" cx="274.1" cy="259.6" rx="53.4" ry="58.9"/>
	<circle cx="274.6" cy="76.7" r="10.2"/>
	<path d="M344.6,222.8c-34.9-23.2-29.9-44.8-29.9-56.2c0-11.3-23-16.6-29.3-41.8c-2-7.8,0.8-14.9,1.4-21.9
		c0.6-6.9-4.4-11.1-10.2-12.5l0.3-11.3h-5.3l0.3,11.3c-5.8,1.4-10.8,5.5-10.2,12.5c0.6,6.9,3.4,14,1.4,21.9
		c-6.4,25.2-29.3,30.4-29.3,41.8c0,11.3,5,32.9-29.9,56.2C228.7,222.8,319.7,222.8,344.6,222.8z"/>
	<path class="st4" d="M376.5,260.1c-4.6,30.1-18.5,57.4-37,77.1c-18.8,19.7-43.1,53.4-67,53.4c-23.9,0-46.4-33.7-65.2-53.4
		c-18.5-19.7-32.3-47-37-77.1c-10.5-60.7,36.9-107.5,103.1-107.1C339.6,152.6,387,199.5,376.5,260.1z"/>
	<g id="Shape_4_:M">
		<g id="Shape_2">
			<path id="Shape_1" class="st5" d="M90.5,328.2c0-16.8,3.5-36,31-36s22.2,0.2,22.2,0.2"/>
		</g>
		<g id="Shape_1_00000008117628525519949320000012395431450895873462_">
			
				<line id="Shape_1_00000080914526911096691080000011090247662987682447_" class="st6" x1="413.2" y1="292" x2="441.2" y2="291.7"/>
		</g>
		<g id="Shape_3">
			
				<line id="Shape_2_00000060732159100170453410000005928273993390830013_" class="st6" x1="402.5" y1="315.7" x2="469.2" y2="316.2"/>
		</g>
		<g id="Shape_2_00000079486348883353103480000000592101226432826810_">
			<line id="Shape_2_00000150082277210128884890000016046456738589441428_" class="st5" x1="125.7" y1="317.7" x2="150" y2="318"/>
		</g>
		<g id="Shape_4">
			
				<line id="Shape_3_00000008839789499321703340000008931514072199906198_" class="st6" x1="400.5" y1="340" x2="440.5" y2="340.2"/>
		</g>
		<g id="Shape_3_00000040575653122835529040000015609264061136676230_">
			<path id="Shape_3_00000168093372474842246420000010727939662596997761_" class="st5" d="M110.7,371.5c0-9.5-1.8-25.5,20.2-25.5"
				/>
		</g>
		<g id="Shape_4_00000111906286750968437540000001149577527579224485_">
			<line id="Shape_4_00000167366550573190234160000012885540557449050809_" class="st6" x1="420" y1="363" x2="444.2" y2="362.7"/>
		</g>
	</g>
</g>
</svg>
